{"title":"Charlie Wilsons War 2007 BRRip 720p x264 AAC - PRiSTiNE [P2PDL]","uid":8729951,"size":690011256,"categoryP":"video","categoryS":"hd___movies","magnet":"?xt=urn:btih:ce1de9d2cb4888002b66d832d70c2b94802b5978&amp;dn=Charlie+Wilsons+War+2007+BRRip+720p+x264+AAC+-+PRiSTiNE+%5BP2PDL%5D&amp;tr=udp%3A%2F%2Ftracker.openbittorrent.com%3A80&amp;tr=udp%3A%2F%2Fopen.demonii.com%3A1337&amp;tr=udp%3A%2F%2Ftracker.coppersurfer.tk%3A6969&amp;tr=udp%3A%2F%2Fexodus.desync.com%3A6969","seeders":3,"leechers":1,"uploader":"Vitamin_X","files":-1,"time":1374576624,"description":"_______ Visit us at our Semi Public Bittorrent Community ________\n  &lt;a href=&quot;\nhttp://p2pdl.com&quot; rel=&quot;nofollow&quot; target=&quot;_NEW&quot;&gt;\nhttp://p2pdl.com&lt;/a&gt;  _____________________________ &lt;a href=&quot; http://p2pdl.com&quot; rel=&quot;nofollow&quot; target=&quot;_NEW&quot;&gt; http://p2pdl.com&lt;/a&gt;\n\n\nCharlie Wilsons War 2007 BRRip 720p x264 AAC - PRiSTiNE\n\nGenre: Action | Adventure | Sci-Fi\nPlot: A drama based on a Texas congressman Charlie Wilson's covert \ndealings in Afghanistan, where his efforts to assist rebels in their \nwar with the Soviets have some unforeseen and long-reaching effects.\nDirector: Joseph Kosinski\nStars: Tom Cruise, Morgan Freeman, Olga Kurylenko.\nRated: Rated PG-13 for sci-fi action violence, brief strong \nlanguage, and some sensuality/nudity \n\n\nIMDb: &lt;a href=&quot;\nhttp://www.imdb.com/title/tt0472062/&quot; rel=&quot;nofollow&quot; target=&quot;_NEW&quot;&gt;\nhttp://www.imdb.com/title/tt0472062/&lt;/a&gt;\n\n\nGeneral\nFormat                         : MPEG-4\nFile size                      : 651 MiB\nDuration                       : 1h 41mn\nOverall bit rate mode          : Variable\nOverall bit rate               : 894 Kbps\nSource                         : 720p.BluRay.DD5.1.x264-EbP\n\nVideo\nFormat                         : AVC\nBit rate                       : 811 Kbps\nWidth                          : 1 280 pixels\nHeight                         : 688 pixels\nDisplay aspect ratio           : 1.85:1\nFrame rate mode                : Constant\nFrame rate                     : 23.976 fps\nBit depth                      : 10 bits\nStream size                    : 590 MiB (91%)\nWriting library                : x264 core 130 r2273 b3065e6\n\nAudio\nFormat                         : AAC\nBit rate                       : 80.0 Kbps\nChannel(s)                     : 2 channels\nChannel positions              : Front: L R\nSampling rate                  : 48.0 KHz / 24.0 KHz\nStream size                    : 58.2 MiB (9%)\nLanguage                       : English\n\nSubtitle                       : Yes(English)\n\n &lt;a href=&quot;\nhttp://someimage.com/elhrbqw&quot; rel=&quot;nofollow&quot; target=&quot;_NEW&quot;&gt;\nhttp://someimage.com/elhrbqw&lt;/a&gt; &lt;a href=&quot;\nhttp://someimage.com/lO9BGoy&quot; rel=&quot;nofollow&quot; target=&quot;_NEW&quot;&gt;\nhttp://someimage.com/lO9BGoy&lt;/a&gt; &lt;a href=&quot;\nhttp://someimage.com/G8YRXOV&quot; rel=&quot;nofollow&quot; target=&quot;_NEW&quot;&gt;\nhttp://someimage.com/G8YRXOV&lt;/a&gt; &lt;a href=&quot;\nhttp://someimage.com/Na9dSvP&quot; rel=&quot;nofollow&quot; target=&quot;_NEW&quot;&gt;\nhttp://someimage.com/Na9dSvP&lt;/a&gt; &lt;a href=&quot;\nhttp://someimage.com/8ZNdaUu&quot; rel=&quot;nofollow&quot; target=&quot;_NEW&quot;&gt;\nhttp://someimage.com/8ZNdaUu&lt;/a&gt; &lt;a href=&quot;\nhttp://someimage.com/bbRmQQN&quot; rel=&quot;nofollow&quot; target=&quot;_NEW&quot;&gt;\nhttp://someimage.com/bbRmQQN&lt;/a&gt; &lt;a href=&quot;\nhttp://someimage.com/m5cS30A&quot; rel=&quot;nofollow&quot; target=&quot;_NEW&quot;&gt;\nhttp://someimage.com/m5cS30A&lt;/a&gt;\n\n----------------------------------------------------------------------------------------------------\n\n\nEncoded using revolutionary 10bit encoding, which enables us to provide you more crispier \nand sharper images at small sizes, just make sure you follow our instructions without a fault.\nRecommend to you to use latest version of VLC player. Install K-Lite Codec Pack or shark007 codecs\nin case of any kind of problem in playback (For non-VLC Media Player users). Alternatively, install\nCore AVC codecs, the fastest decoder that there is coupled with Community Center Codec Pack and play\non Windows Media Player Classic. Check sample to be sure.\nEnjoy!\n\nEncoder Notes:Looking For Early Access To Anything You Can Provide DVDScr, R5, DVDR, BluRay, Direct\nAudio, Music Releases and Seedboxes. We require dedicated servers, so as to do more \nand fast releases of movies.\nIf You Got anything to offer please contact us at &quot;&lt;a class=&quot;__cf_email__&quot; href=&quot;/cdn-cgi/l/email-protection&quot; data-cfemail=&quot;1f6f6d785f776a6c77317c7072&quot;&gt;[email&amp;#160;protected]&lt;/a&gt;&lt;script cf-hash='f9e31' type=&quot;text/javascript&quot;&gt;\n/* &lt;![CDATA[ */!function(){try{var t=&quot;currentScript&quot;in document?document.currentScript:function(){for(var t=document.getElementsByTagName(&quot;script&quot;),e=t.length;e--;)if(t[e].getAttribute(&quot;cf-hash&quot;))return t[e]}();if(t&amp;&amp;t.previousSibling){var e,r,n,i,c=t.previousSibling,a=c.getAttribute(&quot;data-cfemail&quot;);if(a){for(e=&quot;&quot;,r=parseInt(a.substr(0,2),16),n=2;a.length-n;n+=2)i=parseInt(a.substr(n,2),16)^r,e+=String.fromCharCode(i);e=document.createTextNode(e),c.parentNode.replaceChild(e,c)}}}catch(u){}}();/* ]]&gt; */&lt;/script&gt;&quot;.\n\nFacebook Fan Page:  \nSearch P2PDL on FB","torrent":{"xt":"urn:btih:ce1de9d2cb4888002b66d832d70c2b94802b5978","amp;dn":"Charlie+Wilsons+War+2007+BRRip+720p+x264+AAC+-+PRiSTiNE+%5BP2PDL%5D","amp;tr":["udp%3A%2F%2Ftracker.openbittorrent.com%3A80","udp%3A%2F%2Fopen.demonii.com%3A1337","udp%3A%2F%2Ftracker.coppersurfer.tk%3A6969","udp%3A%2F%2Fexodus.desync.com%3A6969"],"infoHash":"ce1de9d2cb4888002b66d832d70c2b94802b5978","infoHashBuffer":{"type":"Buffer","data":[206,29,233,210,203,72,136,0,43,102,216,50,215,12,43,148,128,43,89,120]},"announce":[],"urlList":[]}}